<svg xmlns="http://www.w3.org/2000/svg" viewBox="0 0 512 512">
  <rect width="512" height="512" rx="112.64" fill="#0F3D2E"/>
  <path fill="#F4D35E" d="M36 327.3 86.3 184.7H141.7L191.8 327.3H148L113.8 209.8L79.7 327.3ZM75.6 294.4V262.1H151.8V294.4ZM195 327.3V184.7H272.3Q298.4 184.7 311.3 195.8Q324.3 206.9 324.3 229.4Q324.3 251.7 309.8 262.8Q295.3 273.9 266.1 273.9H235.6V327.3ZM235.6 243H269Q276.3 243 280.2 239.5Q284.2 236 284.2 229.4Q284.2 222.7 280.1 219.2Q275.9 215.6 268.1 215.6H235.6ZM331.3 327.3V184.7H371.9V236.9L422 184.7H470.3L419.1 237.3L476 327.3H430.1L392.1 264.2L371.9 285.2V327.3Z"/>
</svg>
